# xmcd CD database file
#
# Track frame offsets:
#	150
#	20803
#	31656
#	50068
#	66001
#	94839
#	117765
#	146297
#	167960
#	194535
#
# Disc length: 3043 seconds
#
# Revision: 0
# Processed by: cddbd v1.4PL0 Copyright (c) Steve Scherf et al.
# Submitted via: Feurio! 1.63 - http://www.feurio.com
#
DISCID=890be10a
DTITLE=Susan Tedeschi - Norfolk,VA 4/9/03 Disc 1
DYEAR=1900
DGENRE=Blues
TTITLE0=Intro - In The Garden
TTITLE1=You Can Make It If You Try
TTITLE2=Alone
TTITLE3=You Need To Be With Me
TTITLE4=Angel From Montgomery > Sugaree
TTITLE5=Gonna Move
TTITLE6=Wait For Me
TTITLE7=Don't Think Twice It's Alright
TTITLE8=Feeling Music Brings
TTITLE9=Looking For Answers
EXTD=
EXTT0=
EXTT1=
EXTT2=
EXTT3=
EXTT4=
EXTT5=
EXTT6=
EXTT7=
EXTT8=
EXTT9=
PLAYORDER=
